<svg version="1.1" id="Layer_1" xmlns="http://www.w3.org/2000/svg" xmlns:xlink="http://www.w3.org/1999/xlink" x="0px" y="0px"
	 width="100%" viewBox="0 0 1024 1024" enable-background="new 0 0 1024 1024" xml:space="preserve">
<path fill="#F15858" opacity="1.000000" stroke="none" 
	d="
M459.000000,1025.000000 
	C306.000000,1025.000000 153.500000,1025.000000 1.000000,1025.000000 
	C1.000000,683.666687 1.000000,342.333344 1.000000,1.000000 
	C342.333344,1.000000 683.666687,1.000000 1025.000000,1.000000 
	C1025.000000,342.333344 1025.000000,683.666687 1025.000000,1025.000000 
	C836.500000,1025.000000 648.000000,1025.000000 459.000000,1025.000000 
M245.332672,553.183899 
	C250.810364,556.232605 255.995087,560.175842 261.843872,562.091431 
	C268.368134,564.228210 275.463745,564.943115 282.372223,565.471008 
	C286.982849,565.823425 288.601074,567.509949 288.153168,571.906128 
	C287.934845,574.048706 288.155243,576.234680 288.155457,578.401001 
	C288.160187,628.062561 288.135437,677.724243 288.197998,727.385681 
	C288.205750,733.540955 288.489441,739.710022 288.961823,745.848267 
	C291.094604,773.561584 317.525208,799.312927 345.400940,799.790344 
	C377.554779,800.341064 409.725464,800.022217 441.887970,799.883972 
	C450.821808,799.845581 456.814514,794.368042 458.255646,785.522827 
	C458.787354,782.259155 458.905823,778.899353 458.910492,775.582947 
	C458.970123,733.254028 458.909302,690.924927 459.025879,648.596191 
	C459.072021,631.847595 470.369659,620.228760 487.127960,619.971680 
	C505.618805,619.687927 524.119995,619.789001 542.612793,620.026794 
	C554.487122,620.179443 564.992493,628.394775 567.823120,639.835388 
	C569.004211,644.609314 569.233826,649.711243 569.250427,654.666199 
	C569.389587,696.161621 569.324707,737.657532 569.440979,779.153076 
	C569.483215,794.231140 575.368347,799.958252 590.414062,799.972412 
	C619.744385,799.999939 649.075989,800.123047 678.403992,799.861572 
	C684.302063,799.809021 690.409912,798.949768 696.039185,797.219788 
	C722.608948,789.054077 739.823914,765.488770 739.913757,737.059082 
	C740.084412,683.065125 739.954468,629.070374 740.003784,575.075928 
	C740.013000,564.941406 738.335022,565.706543 749.260925,565.427246 
	C768.868530,564.925903 783.752686,556.128906 793.845398,539.664734 
	C806.983521,518.232544 803.072937,492.140869 783.615051,472.661224 
	C705.885559,394.844788 628.027710,317.156250 550.086121,239.552200 
	C540.540710,230.048096 528.537781,225.276031 514.979736,225.078217 
	C497.494110,224.823105 483.868469,232.918930 471.878693,244.934631 
	C396.896637,320.078918 321.820465,395.129272 246.788742,470.224030 
	C244.317123,472.697754 241.886795,475.226868 239.608459,477.877350 
	C220.479828,500.130463 222.781998,533.278625 245.332672,553.183899 
z"/>
<path fill="#FFFEFE" opacity="1.000000" stroke="none" 
	d="
M245.050232,552.966431 
	C222.781998,533.278625 220.479828,500.130463 239.608459,477.877350 
	C241.886795,475.226868 244.317123,472.697754 246.788742,470.224030 
	C321.820465,395.129272 396.896637,320.078918 471.878693,244.934631 
	C483.868469,232.918930 497.494110,224.823105 514.979736,225.078217 
	C528.537781,225.276031 540.540710,230.048096 550.086121,239.552200 
	C628.027710,317.156250 705.885559,394.844788 783.615051,472.661224 
	C803.072937,492.140869 806.983521,518.232544 793.845398,539.664734 
	C783.752686,556.128906 768.868530,564.925903 749.260925,565.427246 
	C738.335022,565.706543 740.013000,564.941406 740.003784,575.075928 
	C739.954468,629.070374 740.084412,683.065125 739.913757,737.059082 
	C739.823914,765.488770 722.608948,789.054077 696.039185,797.219788 
	C690.409912,798.949768 684.302063,799.809021 678.403992,799.861572 
	C649.075989,800.123047 619.744385,799.999939 590.414062,799.972412 
	C575.368347,799.958252 569.483215,794.231140 569.440979,779.153076 
	C569.324707,737.657532 569.389587,696.161621 569.250427,654.666199 
	C569.233826,649.711243 569.004211,644.609314 567.823120,639.835388 
	C564.992493,628.394775 554.487122,620.179443 542.612793,620.026794 
	C524.119995,619.789001 505.618805,619.687927 487.127960,619.971680 
	C470.369659,620.228760 459.072021,631.847595 459.025879,648.596191 
	C458.909302,690.924927 458.970123,733.254028 458.910492,775.582947 
	C458.905823,778.899353 458.787354,782.259155 458.255646,785.522827 
	C456.814514,794.368042 450.821808,799.845581 441.887970,799.883972 
	C409.725464,800.022217 377.554779,800.341064 345.400940,799.790344 
	C317.525208,799.312927 291.094604,773.561584 288.961823,745.848267 
	C288.489441,739.710022 288.205750,733.540955 288.197998,727.385681 
	C288.135437,677.724243 288.160187,628.062561 288.155457,578.401001 
	C288.155243,576.234680 287.934845,574.048706 288.153168,571.906128 
	C288.601074,567.509949 286.982849,565.823425 282.372223,565.471008 
	C275.463745,564.943115 268.368134,564.228210 261.843872,562.091431 
	C255.995087,560.175842 250.810364,556.232605 245.050232,552.966431 
z"/>
</svg>