<svg version="1.1" id="Layer_1" xmlns="http://www.w3.org/2000/svg" xmlns:xlink="http://www.w3.org/1999/xlink" x="0px" y="0px"
	 width="100%" viewBox="0 0 1024 1024" enable-background="new 0 0 1024 1024" xml:space="preserve">
<path fill="#000000" opacity="1.000000" stroke="none" 
	d="
M592.000000,1025.000000 
	C394.666656,1025.000000 197.833328,1025.000000 1.000000,1025.000000 
	C1.000000,683.666687 1.000000,342.333344 1.000000,1.000000 
	C342.333344,1.000000 683.666687,1.000000 1025.000000,1.000000 
	C1025.000000,342.333344 1025.000000,683.666687 1025.000000,1025.000000 
	C880.833313,1025.000000 736.666687,1025.000000 592.000000,1025.000000 
M617.498657,566.755432 
	C595.836548,566.755493 574.174377,566.755493 552.512268,566.755554 
	C539.151062,566.755615 539.152527,566.756104 534.540100,579.549438 
	C534.314819,580.174255 533.980408,580.760986 533.771423,581.390259 
	C528.020813,598.707520 519.566284,615.201660 517.335083,633.591003 
	C515.249084,650.783386 520.086609,665.646729 533.820007,676.750427 
	C543.694214,684.733826 555.536133,687.227417 567.976318,687.234131 
	C614.466187,687.259338 660.956665,687.100159 707.445496,687.318359 
	C725.015076,687.400818 741.439087,683.549377 756.792542,675.157593 
	C782.210449,661.264771 801.082031,641.419434 811.468262,614.078552 
	C816.429016,601.019775 821.137756,587.864685 825.912598,574.735779 
	C848.257324,513.296387 870.587646,451.851685 892.915344,390.406036 
	C894.872192,385.020721 896.772400,379.614777 898.826355,373.861572 
	C897.288940,373.575409 896.510498,373.304382 895.731750,373.303711 
	C865.571716,373.278076 835.411377,373.235168 805.252441,373.410400 
	C803.899841,373.418304 801.831482,375.166565 801.318665,376.555420 
	C787.628113,413.630920 774.078857,450.758667 760.546448,487.892426 
	C745.698425,528.636414 730.856934,569.382812 716.130920,610.170898 
	C714.943420,613.460083 713.481812,614.868469 709.749084,614.846924 
	C680.923035,614.680603 652.095520,614.762634 623.268494,614.734558 
	C621.736206,614.733032 620.204102,614.432983 618.207764,614.223145 
	C624.076721,598.112427 629.664734,582.772888 635.499878,566.755066 
	C629.120056,566.755066 623.808899,566.755066 617.498657,566.755432 
M478.216339,632.785767 
	C480.685516,628.086426 483.716431,623.593994 485.535065,618.655090 
	C500.241699,578.716370 514.725830,538.695618 529.265259,498.695312 
	C532.657227,489.363464 536.000916,480.014008 539.405334,470.565613 
	C538.466492,470.279114 538.018188,470.022919 537.569580,470.022461 
	C507.081024,469.992859 476.592133,469.933136 446.104950,470.129303 
	C444.653778,470.138611 442.454681,472.147339 441.884796,473.696198 
	C425.162811,519.145447 408.560486,564.639038 392.107086,610.186218 
	C390.892303,613.549011 389.482208,614.792786 385.808990,614.771912 
	C356.987183,614.607788 328.164001,614.685120 299.341248,614.669312 
	C297.788391,614.668457 296.235626,614.500000 294.072968,614.374084 
	C299.994812,598.175232 305.646790,582.714722 311.507385,566.683472 
	C279.439148,566.683472 248.305344,566.653687 217.172440,566.808350 
	C216.089249,566.813721 214.534439,568.458862 214.021988,569.683838 
	C212.039001,574.424072 210.242889,579.255859 208.643021,584.140564 
	C203.531250,599.747864 197.281113,615.122803 193.834595,631.097473 
	C189.980759,648.960144 195.068283,665.155334 210.073959,676.986816 
	C220.223221,684.989075 232.224213,687.297729 244.797318,687.306213 
	C291.946655,687.338013 339.096039,687.330383 386.245361,687.295776 
	C389.733307,687.293213 393.263000,687.243225 396.702271,686.734741 
	C431.983398,681.518127 458.399384,662.728333 478.216339,632.785767 
M549.500305,373.341705 
	C530.030884,373.341705 510.561493,373.341736 491.092072,373.341736 
	C477.302429,373.341736 477.302460,373.341705 474.825378,386.970398 
	C469.143646,418.231293 486.761322,442.616272 517.542847,445.524567 
	C526.272583,446.349396 535.128723,445.752075 543.914307,446.112854 
	C547.426758,446.257080 549.059509,445.253113 550.273132,441.748108 
	C555.479065,426.713226 561.096313,411.821014 566.543762,396.869537 
	C569.306030,389.288025 572.025940,381.691071 575.039001,373.341736 
	C566.357361,373.341736 558.428894,373.341736 549.500305,373.341705 
z"/>
<path fill="#E31555" opacity="1.000000" stroke="none" 
	d="
M617.998230,566.755249 
	C623.808899,566.755066 629.120056,566.755066 635.499878,566.755066 
	C629.664734,582.772888 624.076721,598.112427 618.207764,614.223145 
	C620.204102,614.432983 621.736206,614.733032 623.268494,614.734558 
	C652.095520,614.762634 680.923035,614.680603 709.749084,614.846924 
	C713.481812,614.868469 714.943420,613.460083 716.130920,610.170898 
	C730.856934,569.382812 745.698425,528.636414 760.546448,487.892426 
	C774.078857,450.758667 787.628113,413.630920 801.318665,376.555420 
	C801.831482,375.166565 803.899841,373.418304 805.252441,373.410400 
	C835.411377,373.235168 865.571716,373.278076 895.731750,373.303711 
	C896.510498,373.304382 897.288940,373.575409 898.826355,373.861572 
	C896.772400,379.614777 894.872192,385.020721 892.915344,390.406036 
	C870.587646,451.851685 848.257324,513.296387 825.912598,574.735779 
	C821.137756,587.864685 816.429016,601.019775 811.468262,614.078552 
	C801.082031,641.419434 782.210449,661.264771 756.792542,675.157593 
	C741.439087,683.549377 725.015076,687.400818 707.445496,687.318359 
	C660.956665,687.100159 614.466187,687.259338 567.976318,687.234131 
	C555.536133,687.227417 543.694214,684.733826 533.820007,676.750427 
	C520.086609,665.646729 515.249084,650.783386 517.335083,633.591003 
	C519.566284,615.201660 528.020813,598.707520 533.771423,581.390259 
	C533.980408,580.760986 534.314819,580.174255 534.540100,579.549438 
	C539.152527,566.756104 539.151062,566.755615 552.512268,566.755554 
	C574.174377,566.755493 595.836548,566.755493 617.998230,566.755249 
z"/>
<path fill="#E9E6E7" opacity="1.000000" stroke="none" 
	d="
M478.061523,633.114136 
	C458.399384,662.728333 431.983398,681.518127 396.702271,686.734741 
	C393.263000,687.243225 389.733307,687.293213 386.245361,687.295776 
	C339.096039,687.330383 291.946655,687.338013 244.797318,687.306213 
	C232.224213,687.297729 220.223221,684.989075 210.073959,676.986816 
	C195.068283,665.155334 189.980759,648.960144 193.834595,631.097473 
	C197.281113,615.122803 203.531250,599.747864 208.643021,584.140564 
	C210.242889,579.255859 212.039001,574.424072 214.021988,569.683838 
	C214.534439,568.458862 216.089249,566.813721 217.172440,566.808350 
	C248.305344,566.653687 279.439148,566.683472 311.507385,566.683472 
	C305.646790,582.714722 299.994812,598.175232 294.072968,614.374084 
	C296.235626,614.500000 297.788391,614.668457 299.341248,614.669312 
	C328.164001,614.685120 356.987183,614.607788 385.808990,614.771912 
	C389.482208,614.792786 390.892303,613.549011 392.107086,610.186218 
	C408.560486,564.639038 425.162811,519.145447 441.884796,473.696198 
	C442.454681,472.147339 444.653778,470.138611 446.104950,470.129303 
	C476.592133,469.933136 507.081024,469.992859 537.569580,470.022461 
	C538.018188,470.022919 538.466492,470.279114 539.405334,470.565613 
	C536.000916,480.014008 532.657227,489.363464 529.265259,498.695312 
	C514.725830,538.695618 500.241699,578.716370 485.535065,618.655090 
	C483.716431,623.593994 480.685516,628.086426 478.061523,633.114136 
z"/>
<path fill="#E7E4E5" opacity="1.000000" stroke="none" 
	d="
M550.000366,373.341736 
	C558.428894,373.341736 566.357361,373.341736 575.039001,373.341736 
	C572.025940,381.691071 569.306030,389.288025 566.543762,396.869537 
	C561.096313,411.821014 555.479065,426.713226 550.273132,441.748108 
	C549.059509,445.253113 547.426758,446.257080 543.914307,446.112854 
	C535.128723,445.752075 526.272583,446.349396 517.542847,445.524567 
	C486.761322,442.616272 469.143646,418.231293 474.825378,386.970398 
	C477.302460,373.341705 477.302429,373.341736 491.092072,373.341736 
	C510.561493,373.341736 530.030884,373.341705 550.000366,373.341736 
z"/>
</svg>